<svg xmlns="http://www.w3.org/2000/svg" width="14.827" height="13.18" viewBox="0 0 14.827 13.18">
  <path id="Icon_awesome-external-link-alt" data-name="Icon awesome-external-link-alt" d="M14.827.618V3.912a.618.618,0,0,1-1.055.437l-.919-.919L6.585,9.7a.618.618,0,0,1-.874,0l-.582-.582a.618.618,0,0,1,0-.874L11.4,1.974l-.919-.919A.618.618,0,0,1,10.915,0h3.294A.618.618,0,0,1,14.827.618Zm-4.35,6.353-.412.412a.618.618,0,0,0-.181.437v3.713H1.647V3.295h6.8a.618.618,0,0,0,.437-.181L9.292,2.7a.618.618,0,0,0-.437-1.055H1.236A1.236,1.236,0,0,0,0,2.883v9.061A1.236,1.236,0,0,0,1.236,13.18H10.3a1.236,1.236,0,0,0,1.236-1.236V7.407A.618.618,0,0,0,10.478,6.971Z" fill="#fff"/>
</svg>
