<svg xmlns="http://www.w3.org/2000/svg" xmlns:xlink="http://www.w3.org/1999/xlink" width="570.877" height="415.483" viewBox="0 0 570.877 415.483">
  <defs>
    <clipPath id="clip-path">
      <rect id="Rectangle_706" data-name="Rectangle 706" width="570.877" height="415.483" fill="#23356e"/>
    </clipPath>
  </defs>
  <g id="Group_577" data-name="Group 577" clip-path="url(#clip-path)">
    <path id="Path_629" data-name="Path 629" d="M56.356,405.814,231.088,231.084a33.011,33.011,0,0,0,0-46.686L56.356,9.669A33.012,33.012,0,0,0,9.669,56.355L137.71,184.4a33.012,33.012,0,0,1,0,46.685L9.669,359.128a33.013,33.013,0,0,0,0,46.684h0a33.012,33.012,0,0,0,46.688,0" transform="translate(0 0)" fill="#23356e"/>
    <path id="Path_630" data-name="Path 630" d="M389.838,405.813h0a33.012,33.012,0,0,0,46.688,0l174.733-174.73a33.011,33.011,0,0,0,0-46.686L436.526,9.669A33.012,33.012,0,0,0,389.84,56.356L517.881,184.4a33.012,33.012,0,0,1,0,46.685L389.84,359.129a33.012,33.012,0,0,0,0,46.684" transform="translate(-213.796 -0.001)" fill="#23356e"/>
    <path id="Path_631" data-name="Path 631" d="M764,405.813h0a33.012,33.012,0,0,0,46.688,0l174.733-174.73a33.012,33.012,0,0,0,0-46.686L810.688,9.669A33.012,33.012,0,0,0,764,56.356L892.043,184.4a33.012,33.012,0,0,1,0,46.685L764,359.129a33.012,33.012,0,0,0,0,46.684" transform="translate(-424.212 -0.001)" fill="#23356e"/>
  </g>
</svg>
