<svg xmlns="http://www.w3.org/2000/svg" xmlns:xlink="http://www.w3.org/1999/xlink" width="788.293" height="573.717" viewBox="0 0 788.293 573.717">
  <defs>
    <clipPath id="clip-path">
      <rect id="Rectangle_706" data-name="Rectangle 706" width="788.293" height="573.717" fill="#23356e"/>
    </clipPath>
  </defs>
  <g id="Group_577" data-name="Group 577" clip-path="url(#clip-path)">
    <path id="Path_629" data-name="Path 629" d="M77.818,560.367,319.1,319.091a45.583,45.583,0,0,0,0-64.466L77.818,13.351A45.585,45.585,0,0,0,13.352,77.817l176.8,176.808a45.584,45.584,0,0,1,0,64.465L13.351,495.9a45.585,45.585,0,0,0,0,64.463h0a45.584,45.584,0,0,0,64.469,0" transform="translate(0 -0.001)" fill="#23356e"/>
    <path id="Path_630" data-name="Path 630" d="M393.519,560.364h0a45.585,45.585,0,0,0,64.469,0L699.267,319.092a45.584,45.584,0,0,0,0-64.466L457.988,13.352a45.584,45.584,0,0,0-64.466,64.466l176.8,176.808a45.585,45.585,0,0,1,0,64.465L393.522,495.9a45.584,45.584,0,0,0,0,64.463" transform="translate(-150.433 -0.001)" fill="#23356e"/>
    <path id="Path_631" data-name="Path 631" d="M767.681,560.364h0a45.584,45.584,0,0,0,64.469,0l241.279-241.276a45.584,45.584,0,0,0,0-64.466L832.15,13.352a45.584,45.584,0,0,0-64.466,64.466L944.49,254.626a45.584,45.584,0,0,1,0,64.465L767.684,495.9a45.584,45.584,0,0,0,0,64.463" transform="translate(-298.488 -0.001)" fill="#23356e"/>
  </g>
</svg>
