<svg xmlns="http://www.w3.org/2000/svg" xmlns:xlink="http://www.w3.org/1999/xlink" width="1374.747" height="1000.537" viewBox="0 0 1374.747 1000.537">
  <defs>
    <clipPath id="clip-path">
      <rect id="Rectangle_706" data-name="Rectangle 706" width="1374.747" height="1000.537" fill="#23356e"/>
    </clipPath>
  </defs>
  <g id="Group_577" data-name="Group 577" clip-path="url(#clip-path)">
    <path id="Path_629" data-name="Path 629" d="M135.711,977.254,556.49,556.48a79.5,79.5,0,0,0,0-112.425L135.711,23.283A79.5,79.5,0,0,0,23.284,135.71L331.623,444.055a79.5,79.5,0,0,1,0,112.424L23.283,864.827a79.5,79.5,0,0,0,0,112.42h0a79.5,79.5,0,0,0,112.431.005" transform="translate(0 -0.001)" fill="#23356e"/>
    <path id="Path_630" data-name="Path 630" d="M403.45,977.248h0a79.5,79.5,0,0,0,112.431.005L936.661,556.481a79.5,79.5,0,0,0,0-112.426L515.881,23.284A79.5,79.5,0,0,0,403.455,135.711L711.794,444.056a79.5,79.5,0,0,1,0,112.424L403.454,864.828a79.5,79.5,0,0,0,0,112.42" transform="translate(20.482 -0.001)" fill="#23356e"/>
    <path id="Path_631" data-name="Path 631" d="M777.612,977.248h0a79.5,79.5,0,0,0,112.431.005l420.778-420.774a79.5,79.5,0,0,0,0-112.426L890.043,23.284A79.5,79.5,0,0,0,777.617,135.711l308.34,308.345a79.5,79.5,0,0,1,0,112.424L777.616,864.828a79.5,79.5,0,0,0,0,112.42" transform="translate(40.64 -0.001)" fill="#23356e"/>
  </g>
</svg>
