<svg xmlns="http://www.w3.org/2000/svg" xmlns:xlink="http://www.w3.org/1999/xlink" width="1076.397" height="783.399" viewBox="0 0 1076.397 783.399">
  <defs>
    <clipPath id="clip-path">
      <rect id="Rectangle_706" data-name="Rectangle 706" width="1076.397" height="783.399" fill="#23356e"/>
    </clipPath>
  </defs>
  <g id="Group_577" data-name="Group 577" clip-path="url(#clip-path)">
    <path id="Path_629" data-name="Path 629" d="M106.259,765.169,435.72,435.712a62.243,62.243,0,0,0,0-88.027L106.259,18.23a62.245,62.245,0,0,0-88.027,88.027L259.654,347.685a62.244,62.244,0,0,1,0,88.026L18.23,677.141a62.246,62.246,0,0,0,0,88.022h0a62.244,62.244,0,0,0,88.031,0" transform="translate(0 -0.001)" fill="#23356e"/>
    <path id="Path_630" data-name="Path 630" d="M398.4,765.165h0a62.245,62.245,0,0,0,88.031,0L815.89,435.713a62.243,62.243,0,0,0,0-88.027L486.429,18.231A62.245,62.245,0,0,0,398.4,106.259L639.825,347.686a62.245,62.245,0,0,1,0,88.026L398.4,677.142a62.244,62.244,0,0,0,0,88.023" transform="translate(-66.468 -0.001)" fill="#23356e"/>
    <path id="Path_631" data-name="Path 631" d="M772.56,765.165h0a62.245,62.245,0,0,0,88.031,0l329.461-329.457a62.244,62.244,0,0,0,0-88.027L860.591,18.231a62.245,62.245,0,0,0-88.027,88.027l241.424,241.428a62.244,62.244,0,0,1,0,88.026L772.563,677.142a62.244,62.244,0,0,0,0,88.023" transform="translate(-131.886 -0.001)" fill="#23356e"/>
  </g>
</svg>
