<svg xmlns="http://www.w3.org/2000/svg" xmlns:xlink="http://www.w3.org/1999/xlink" width="1193.694" height="465.64" viewBox="0 0 1193.694 465.64">
  <defs>
    <clipPath id="clip-path">
      <rect id="Rectangle_706" data-name="Rectangle 706" width="639.794" height="465.64" fill="#23356e"/>
    </clipPath>
  </defs>
  <g id="Group_587" data-name="Group 587" transform="translate(685.076 -1363)">
    <g id="Group_585" data-name="Group 585" transform="translate(-685.076 1363)" opacity="0.05" style="isolation: isolate">
      <g id="Group_577" data-name="Group 577" transform="translate(0 0)" clip-path="url(#clip-path)">
        <path id="Path_629" data-name="Path 629" d="M63.159,454.8,258.985,258.98a37,37,0,0,0,0-52.322L63.159,10.836A37,37,0,0,0,10.837,63.158l143.5,143.5a37,37,0,0,1,0,52.321l-143.5,143.5a37,37,0,0,0,0,52.319h0a37,37,0,0,0,52.324,0" transform="translate(0 -0.001)" fill="#23356e"/>
        <path id="Path_630" data-name="Path 630" d="M391,454.8h0a37,37,0,0,0,52.324,0L639.156,258.981a37,37,0,0,0,0-52.322L443.329,10.837a37,37,0,0,0-52.322,52.322l143.5,143.5a37,37,0,0,1,0,52.321l-143.5,143.5a37,37,0,0,0,0,52.319" transform="translate(-193.711 -0.001)" fill="#23356e"/>
        <path id="Path_631" data-name="Path 631" d="M765.167,454.8h0a37,37,0,0,0,52.324,0l195.826-195.824a37,37,0,0,0,0-52.322L817.491,10.837a37,37,0,0,0-52.322,52.322l143.5,143.5a37,37,0,0,1,0,52.321l-143.5,143.5a37,37,0,0,0,0,52.319" transform="translate(-384.36 -0.001)" fill="#23356e"/>
      </g>
    </g>
    <g id="Group_586" data-name="Group 586" transform="translate(-131.176 1363)" opacity="0.03" style="isolation: isolate">
      <g id="Group_577-2" data-name="Group 577" transform="translate(0 0)" clip-path="url(#clip-path)">
        <path id="Path_629-2" data-name="Path 629" d="M63.159,454.8,258.985,258.98a37,37,0,0,0,0-52.322L63.159,10.836A37,37,0,0,0,10.837,63.158l143.5,143.5a37,37,0,0,1,0,52.321l-143.5,143.5a37,37,0,0,0,0,52.319h0a37,37,0,0,0,52.324,0" transform="translate(0 -0.001)" fill="#23356e"/>
        <path id="Path_630-2" data-name="Path 630" d="M391,454.8h0a37,37,0,0,0,52.324,0L639.156,258.981a37,37,0,0,0,0-52.322L443.329,10.837a37,37,0,0,0-52.322,52.322l143.5,143.5a37,37,0,0,1,0,52.321l-143.5,143.5a37,37,0,0,0,0,52.319" transform="translate(-193.711 -0.001)" fill="#23356e"/>
        <path id="Path_631-2" data-name="Path 631" d="M765.167,454.8h0a37,37,0,0,0,52.324,0l195.826-195.824a37,37,0,0,0,0-52.322L817.491,10.837a37,37,0,0,0-52.322,52.322l143.5,143.5a37,37,0,0,1,0,52.321l-143.5,143.5a37,37,0,0,0,0,52.319" transform="translate(-384.36 -0.001)" fill="#23356e"/>
      </g>
    </g>
  </g>
</svg>
