<svg xmlns="http://www.w3.org/2000/svg" xmlns:xlink="http://www.w3.org/1999/xlink" width="1711.389" height="667.584" viewBox="0 0 1711.389 667.584">
  <defs>
    <clipPath id="clip-path">
      <rect id="Rectangle_706" data-name="Rectangle 706" width="917.266" height="667.584" fill="#23356e"/>
    </clipPath>
  </defs>
  <g id="Group_587" data-name="Group 587" transform="translate(685.076 -1363)">
    <g id="Group_585" data-name="Group 585" transform="translate(-685.076 1363)" opacity="0.05" style="isolation: isolate">
      <g id="Group_577" data-name="Group 577" transform="translate(0 0)" clip-path="url(#clip-path)">
        <path id="Path_629" data-name="Path 629" d="M90.55,652.049,371.3,371.3a53.041,53.041,0,0,0,0-75.013L90.55,15.535A53.043,53.043,0,0,0,15.536,90.549L221.268,296.285a53.042,53.042,0,0,1,0,75.012L15.535,577.035a53.043,53.043,0,0,0,0,75.01h0a53.042,53.042,0,0,0,75.017,0" transform="translate(0 -0.001)" fill="#23356e"/>
        <path id="Path_630" data-name="Path 630" d="M395.7,652.045h0a53.043,53.043,0,0,0,75.017,0L751.475,371.3a53.042,53.042,0,0,0,0-75.014L470.72,15.536A53.043,53.043,0,0,0,395.707,90.55L601.438,296.286a53.043,53.043,0,0,1,0,75.012L395.706,577.036a53.042,53.042,0,0,0,0,75.01" transform="translate(-112.845 -0.001)" fill="#23356e"/>
        <path id="Path_631" data-name="Path 631" d="M769.865,652.045h0a53.043,53.043,0,0,0,75.017,0L1125.637,371.3a53.042,53.042,0,0,0,0-75.014L844.882,15.536A53.043,53.043,0,0,0,769.869,90.55L975.6,296.286a53.042,53.042,0,0,1,0,75.012L769.868,577.036a53.042,53.042,0,0,0,0,75.01" transform="translate(-223.906 -0.001)" fill="#23356e"/>
      </g>
    </g>
    <g id="Group_586" data-name="Group 586" transform="translate(109.046 1363)" opacity="0.03" style="isolation: isolate">
      <g id="Group_577-2" data-name="Group 577" transform="translate(0 0)" clip-path="url(#clip-path)">
        <path id="Path_629-2" data-name="Path 629" d="M90.55,652.049,371.3,371.3a53.041,53.041,0,0,0,0-75.013L90.55,15.535A53.043,53.043,0,0,0,15.536,90.549L221.268,296.285a53.042,53.042,0,0,1,0,75.012L15.535,577.035a53.043,53.043,0,0,0,0,75.01h0a53.042,53.042,0,0,0,75.017,0" transform="translate(0 -0.001)" fill="#23356e"/>
        <path id="Path_630-2" data-name="Path 630" d="M395.7,652.045h0a53.043,53.043,0,0,0,75.017,0L751.475,371.3a53.042,53.042,0,0,0,0-75.014L470.72,15.536A53.043,53.043,0,0,0,395.707,90.55L601.438,296.286a53.043,53.043,0,0,1,0,75.012L395.706,577.036a53.042,53.042,0,0,0,0,75.01" transform="translate(-112.845 -0.001)" fill="#23356e"/>
        <path id="Path_631-2" data-name="Path 631" d="M769.865,652.045h0a53.043,53.043,0,0,0,75.017,0L1125.637,371.3a53.042,53.042,0,0,0,0-75.014L844.882,15.536A53.043,53.043,0,0,0,769.869,90.55L975.6,296.286a53.042,53.042,0,0,1,0,75.012L769.868,577.036a53.042,53.042,0,0,0,0,75.01" transform="translate(-223.906 -0.001)" fill="#23356e"/>
      </g>
    </g>
  </g>
</svg>
