<svg xmlns="http://www.w3.org/2000/svg" width="17.587" height="19.542" viewBox="0 0 17.587 19.542">
  <path id="Icon_material-date-range" data-name="Icon material-date-range" d="M10.362,11.794H8.408v1.954h1.954Zm3.908,0H12.317v1.954h1.954Zm3.908,0H16.225v1.954h1.954Zm1.954-6.84h-.977V3H17.2V4.954H9.385V3H7.431V4.954H6.454A1.945,1.945,0,0,0,4.51,6.908L4.5,20.587a1.954,1.954,0,0,0,1.954,1.954H20.133a1.96,1.96,0,0,0,1.954-1.954V6.908A1.96,1.96,0,0,0,20.133,4.954Zm0,15.633H6.454V9.84H20.133Z" transform="translate(-4.5 -3)" fill="#23356e"/>
</svg>
