<svg xmlns="http://www.w3.org/2000/svg" width="19.752" height="18.945" viewBox="0 0 19.752 18.945">
  <g id="Icon_feather-shopping-cart" data-name="Icon feather-shopping-cart" transform="translate(1 1)">
    <path id="Path_550" data-name="Path 550" d="M13.614,30.807A.807.807,0,1,1,12.807,30,.807.807,0,0,1,13.614,30.807Z" transform="translate(-6.352 -14.669)" fill="none" stroke="#fff" stroke-linecap="round" stroke-linejoin="round" stroke-width="2"/>
    <path id="Path_551" data-name="Path 551" d="M30.114,30.807A.807.807,0,1,1,29.307,30,.807.807,0,0,1,30.114,30.807Z" transform="translate(-13.976 -14.669)" fill="none" stroke="#fff" stroke-linecap="round" stroke-linejoin="round" stroke-width="2"/>
    <path id="Path_552" data-name="Path 552" d="M1.5,1.5H4.728L6.89,12.3A1.614,1.614,0,0,0,8.5,13.6h7.843a1.614,1.614,0,0,0,1.614-1.3l1.291-6.77H5.534" transform="translate(-1.5 -1.5)" fill="none" stroke="#fff" stroke-linecap="round" stroke-linejoin="round" stroke-width="2"/>
  </g>
</svg>
