<svg xmlns="http://www.w3.org/2000/svg" width="109.337" height="96.19" viewBox="0 0 60.337 68.19">
  <g id="Group_1227" data-name="Group 1227" transform="translate(0 68.19) rotate(-90)">
    <g id="Group_651" data-name="Group 651" transform="translate(0 0)">
      <g id="Group_594" data-name="Group 594">
        <g id="Group_650" data-name="Group 650">
          <g id="Group_588" data-name="Group 588" transform="translate(4.043)">
            <circle id="Ellipse_1" data-name="Ellipse 1" cx="30.169" cy="30.169" r="30.169" fill="#e5f4f1"/>
          </g>
          <path id="Path_639" data-name="Path 639" d="M13.216,4.628a8.272,8.272,0,0,0,7.34,4.343c-.435.372-9.244,14.433-9.244,14.433L0,0Z" transform="translate(47.635 11.602)" fill="#e5f4f1"/>
          <path id="Path_665" data-name="Path 665" d="M7.34,4.628A8.271,8.271,0,0,1,0,8.971C.435,9.343,9.244,23.4,9.244,23.4L20.556,0Z" transform="translate(0 11.602)" fill="#e5f4f1"/>
        </g>
      </g>
      <g id="Group_649" data-name="Group 649" transform="translate(16.11 10.162)">
        <circle id="Ellipse_3" data-name="Ellipse 3" cx="18.419" cy="18.419" r="18.419" fill="#1c2e5e"/>
      </g>
    </g>
    <path id="Icon_material-phone-iphone" data-name="Icon material-phone-iphone" d="M8.257,0H1.966A1.967,1.967,0,0,0,0,1.966V15.334A1.967,1.967,0,0,0,1.966,17.3H8.257a1.967,1.967,0,0,0,1.966-1.966V1.966A1.967,1.967,0,0,0,8.257,0ZM5.111,16.514a1.18,1.18,0,1,1,1.18-1.18A1.178,1.178,0,0,1,5.111,16.514ZM8.65,13.368H1.573V2.359H8.65Z" transform="translate(43.38 23.787) rotate(90)" fill="#fff"/>
  </g>
</svg>
