<svg id="Component_39_1" data-name="Component 39 – 1" xmlns="http://www.w3.org/2000/svg" width="45.539" height="45.539" viewBox="0 0 45.539 45.539">
  <g id="Path_652" data-name="Path 652" fill="none">
    <path d="M22.769,0A22.769,22.769,0,1,1,0,22.769,22.769,22.769,0,0,1,22.769,0Z" stroke="none"/>
    <path d="M 22.769287109375 0.9999961853027344 C 19.83000755310059 0.9999961853027344 16.97918701171875 1.575435638427734 14.29600715637207 2.7103271484375 C 11.703857421875 3.806716918945312 9.375648498535156 5.376495361328125 7.376075744628906 7.376075744628906 C 5.376495361328125 9.375648498535156 3.806716918945312 11.703857421875 2.7103271484375 14.29600715637207 C 1.575435638427734 16.97918701171875 0.9999961853027344 19.83000755310059 0.9999961853027344 22.769287109375 C 0.9999961853027344 25.70856666564941 1.575435638427734 28.55938720703125 2.7103271484375 31.24256706237793 C 3.806716918945312 33.834716796875 5.376495361328125 36.16292572021484 7.376075744628906 38.16249847412109 C 9.375648498535156 40.16207885742188 11.703857421875 41.73185729980469 14.29600715637207 42.8282470703125 C 16.97918701171875 43.96313858032227 19.83000755310059 44.53857803344727 22.769287109375 44.53857803344727 C 25.70856666564941 44.53857803344727 28.55938720703125 43.96313858032227 31.24256706237793 42.8282470703125 C 33.834716796875 41.73185729980469 36.16292572021484 40.16207885742188 38.16249847412109 38.16249847412109 C 40.16207885742188 36.16292572021484 41.73185729980469 33.834716796875 42.8282470703125 31.24256706237793 C 43.96313858032227 28.55938720703125 44.53857803344727 25.70856666564941 44.53857803344727 22.769287109375 C 44.53857803344727 19.83000755310059 43.96313858032227 16.97918701171875 42.8282470703125 14.29600715637207 C 41.73185729980469 11.703857421875 40.16207885742188 9.375648498535156 38.16249847412109 7.376075744628906 C 36.16292572021484 5.376495361328125 33.834716796875 3.806716918945312 31.24256706237793 2.7103271484375 C 28.55938720703125 1.575435638427734 25.70856666564941 0.9999961853027344 22.769287109375 0.9999961853027344 M 22.769287109375 -3.814697265625e-06 C 35.34441757202148 -3.814697265625e-06 45.53857803344727 10.19415664672852 45.53857803344727 22.769287109375 C 45.53857803344727 35.34441757202148 35.34441757202148 45.53857803344727 22.769287109375 45.53857803344727 C 10.19415664672852 45.53857803344727 -3.814697265625e-06 35.34441757202148 -3.814697265625e-06 22.769287109375 C -3.814697265625e-06 10.19415664672852 10.19415664672852 -3.814697265625e-06 22.769287109375 -3.814697265625e-06 Z" stroke="none" fill="#fff"/>
  </g>
  <g id="Group_659" data-name="Group 659" transform="translate(22.77 10.809) rotate(45)">
    <path id="Path_615" data-name="Path 615" d="M0,0V16.914" transform="translate(8.457)" fill="none" stroke="#fff" stroke-width="4"/>
    <path id="Path_616" data-name="Path 616" d="M0,0V16.914" transform="translate(16.914 8.456) rotate(90)" fill="none" stroke="#fff" stroke-width="4"/>
  </g>
  <g id="Group_667" data-name="Group 667" transform="translate(22.77 10.809) rotate(45)">
    <path id="Path_615-2" data-name="Path 615" d="M0,0V16.914" transform="translate(8.457)" fill="none" stroke="#fff" stroke-width="4"/>
    <path id="Path_616-2" data-name="Path 616" d="M0,0V16.914" transform="translate(16.914 8.456) rotate(90)" fill="none" stroke="#fff" stroke-width="4"/>
  </g>
</svg>
