<svg xmlns="http://www.w3.org/2000/svg" width="29.25" height="29.25" viewBox="0 0 29.25 29.25">
  <path id="Icon_ionic-ios-arrow-dropdown-circle" data-name="Icon ionic-ios-arrow-dropdown-circle" d="M3.375,18A14.625,14.625,0,1,1,18,32.625,14.623,14.623,0,0,1,3.375,18ZM23.7,21.052a1.362,1.362,0,0,0,1.92,0,1.341,1.341,0,0,0,.394-.956,1.364,1.364,0,0,0-.4-.963l-6.63-6.609a1.355,1.355,0,0,0-1.87.042l-6.729,6.708a1.357,1.357,0,0,0,1.92,1.92l5.7-5.759Z" transform="translate(-3.375 -3.375)" fill="#cbe9e3"/>
</svg>
