<svg xmlns="http://www.w3.org/2000/svg" width="21.261" height="26.655" viewBox="0 0 21.261 26.655">
  <g id="Group_808" data-name="Group 808" transform="translate(1.839)">
    <path id="Path_713" data-name="Path 713" d="M4571.1,653l1.827,1.827,3.412-3.411" transform="translate(-4564.724 -644.548)" fill="none" stroke="#23366e" stroke-linecap="round" stroke-width="2"/>
    <path id="Path_714" data-name="Path 714" d="M0,0V8.351l2.848-3.2,2.847,3.2V0" transform="translate(2.856 13.882) rotate(20)" fill="none" stroke="#23366e" stroke-width="2"/>
    <path id="Path_715" data-name="Path 715" d="M0,8.493V0L2.848,3.256,5.695,0V8.493" transform="translate(17.572 21.863) rotate(160)" fill="none" stroke="#23366e" stroke-width="2"/>
    <g id="Path_716" data-name="Path 716" transform="translate(0.424)" fill="none">
      <path d="M8.574,0A8.574,8.574,0,1,1,0,8.574,8.574,8.574,0,0,1,8.574,0Z" stroke="none"/>
      <path d="M 8.573637962341309 2 C 4.948918342590332 2 1.999998092651367 4.948960304260254 1.999998092651367 8.57373046875 C 1.999998092651367 12.19850063323975 4.948918342590332 15.1474609375 8.573637962341309 15.1474609375 C 12.1983585357666 15.1474609375 15.14727783203125 12.19850063323975 15.14727783203125 8.57373046875 C 15.14727783203125 4.948960304260254 12.1983585357666 2 8.573637962341309 2 M 8.573637962341309 0 C 13.30872821807861 0 17.14727783203125 3.838590621948242 17.14727783203125 8.57373046875 C 17.14727783203125 13.30887031555176 13.30872821807861 17.1474609375 8.573637962341309 17.1474609375 C 3.838547706604004 17.1474609375 -1.9073486328125e-06 13.30887031555176 -1.9073486328125e-06 8.57373046875 C -1.9073486328125e-06 3.838590621948242 3.838547706604004 0 8.573637962341309 0 Z" stroke="none" fill="#23366e"/>
    </g>
  </g>
</svg>
