<svg xmlns="http://www.w3.org/2000/svg" width="42.004" height="42" viewBox="0 0 42.004 42">
  <g id="Group_626" data-name="Group 626" transform="translate(-1001 -2600.996)">
    <circle id="Ellipse_4" data-name="Ellipse 4" cx="21" cy="21" r="21" transform="translate(1001.004 2600.996)" fill="#fff"/>
    <path id="Icon_awesome-plus-circle" data-name="Icon awesome-plus-circle" d="M21.473.563A20.911,20.911,0,1,0,42.384,21.473,20.907,20.907,0,0,0,21.473.563ZM33.615,23.834A1.015,1.015,0,0,1,32.6,24.846H24.846V32.6a1.015,1.015,0,0,1-1.012,1.012H19.112A1.015,1.015,0,0,1,18.1,32.6V24.846H10.343a1.015,1.015,0,0,1-1.012-1.012V19.112A1.015,1.015,0,0,1,10.343,18.1H18.1V10.343a1.015,1.015,0,0,1,1.012-1.012h4.722a1.015,1.015,0,0,1,1.012,1.012V18.1H32.6a1.015,1.015,0,0,1,1.012,1.012Z" transform="translate(1000.438 2600.438)" fill="#23356e"/>
  </g>
</svg>
