<svg xmlns="http://www.w3.org/2000/svg" width="45" height="45" viewBox="0 0 45 45">
  <g id="Path_663" data-name="Path 663" fill="none">
    <path d="M22.5,0A22.613,22.613,0,0,1,43.005,13.224,22.07,22.07,0,0,1,45,22.5,22.5,22.5,0,1,1,22.5,0Z" stroke="none"/>
    <path d="M 22.5 1 C 19.59708023071289 1 16.78152084350586 1.568321228027344 14.13154029846191 2.689170837402344 C 11.57144927978516 3.771991729736328 9.272048950195312 5.322360992431641 7.297199249267578 7.297199249267578 C 5.322360992431641 9.272048950195312 3.771991729736328 11.57144927978516 2.689170837402344 14.13154029846191 C 1.568321228027344 16.78152084350586 1 19.59708023071289 1 22.5 C 1 25.40291976928711 1.568321228027344 28.21847915649414 2.689170837402344 30.86845970153809 C 3.771991729736328 33.42855072021484 5.322360992431641 35.72795104980469 7.297199249267578 37.70280075073242 C 9.272048950195312 39.67763900756836 11.57144927978516 41.22800827026367 14.13154029846191 42.31082916259766 C 16.78152084350586 43.43167877197266 19.59708023071289 44 22.5 44 C 25.40291976928711 44 28.21847915649414 43.43167877197266 30.86845970153809 42.31082916259766 C 33.42855072021484 41.22800827026367 35.72795104980469 39.67763900756836 37.70280075073242 37.70280075073242 C 39.67763900756836 35.72795104980469 41.22800827026367 33.42855072021484 42.31082916259766 30.86845970153809 C 43.43167877197266 28.21847915649414 44 25.40291976928711 44 22.5 C 44 19.39512062072754 43.32537841796875 16.25226020812988 42.09999084472656 13.64945030212402 C 40.32905960083008 9.878189086914062 37.59272003173828 6.705791473388672 34.18679809570312 4.475208282470703 C 30.71533966064453 2.201709747314453 26.67411041259766 1 22.5 1 M 22.5 0 C 31.5091495513916 0 39.28158950805664 5.294929504394531 43.00516128540039 13.22439956665039 C 44.23817825317383 15.84341049194336 45 19.08274078369141 45 22.5 C 45 34.92641067504883 34.92641067504883 45 22.5 45 C 10.07358932495117 45 0 34.92641067504883 0 22.5 C 0 10.07358932495117 10.07358932495117 0 22.5 0 Z" stroke="none" fill="#23356e"/>
  </g>
  <g id="Group_1" data-name="Group 1" transform="translate(15.431 15.19)">
    <path id="Path_1" data-name="Path 1" d="M965.7,74.7a6.221,6.221,0,1,1-8.8,0A6.221,6.221,0,0,1,965.7,74.7Z" transform="translate(-955.079 -72.877)" fill="none" stroke="#fff" stroke-miterlimit="10" stroke-width="2"/>
    <line id="Line_1" data-name="Line 1" x2="5.377" y2="5.376" transform="translate(10.62 10.132)" fill="none" stroke="#fff" stroke-miterlimit="10" stroke-width="2"/>
  </g>
</svg>
