<svg xmlns="http://www.w3.org/2000/svg" width="50" height="50" viewBox="0 0 50 50">
  <circle id="Ellipse_5160" data-name="Ellipse 5160" cx="25" cy="25" r="25" fill="#084e99"/>
  <path id="Icon_ionic-ios-arrow-round-forward" data-name="Icon ionic-ios-arrow-round-forward" d="M18.3,11.461a.742.742,0,0,0-.006,1.045l3.454,3.459H8.608a.739.739,0,0,0,0,1.477H21.747L18.293,20.9a.748.748,0,0,0,.006,1.045.735.735,0,0,0,1.04-.006l4.681-4.715h0a.829.829,0,0,0,.153-.233.7.7,0,0,0,.057-.284.74.74,0,0,0-.21-.517l-4.681-4.715A.724.724,0,0,0,18.3,11.461Z" transform="translate(7.777 8.904)" fill="#fff"/>
</svg>
