<svg id="Group_1172" data-name="Group 1172" xmlns="http://www.w3.org/2000/svg" width="50" height="50" viewBox="0 0 50 50">
  <circle id="Ellipse_5160" data-name="Ellipse 5160" cx="25" cy="25" r="25" fill="#084e99"/>
  <path id="Icon_ionic-ios-arrow-round-forward" data-name="Icon ionic-ios-arrow-round-forward" d="M13.8,11.461a.742.742,0,0,1,.006,1.045l-3.454,3.459H23.5a.739.739,0,0,1,0,1.477H10.357L13.811,20.9a.748.748,0,0,1-.006,1.045.735.735,0,0,1-1.04-.006L8.085,17.226h0a.829.829,0,0,1-.153-.233.7.7,0,0,1-.057-.284.74.74,0,0,1,.21-.517l4.681-4.715A.724.724,0,0,1,13.8,11.461Z" transform="translate(10.118 8.904)" fill="#fff"/>
</svg>
